<?xml version="1.0" standalone="no"?><!DOCTYPE svg PUBLIC "-//W3C//DTD SVG 1.1//EN" "http://www.w3.org/Graphics/SVG/1.1/DTD/svg11.dtd"><svg t="1736346264386" class="icon" viewBox="0 0 1024 1024" version="1.1" xmlns="http://www.w3.org/2000/svg" p-id="19072" xmlns:xlink="http://www.w3.org/1999/xlink" width="256" height="256"><path d="M890.88 113.152s40.448-80.896 63.488 0c0 0 144.384 297.984-101.376 624.64-116.736 152.576-356.864 205.312-521.728 100.864C276.48 803.328 252.416 762.88 252.416 762.88s-34.816 22.528-74.752 68.096c-37.888 43.52-58.368 118.784-105.472 116.736-10.752-0.512-22.528-4.096-31.232-13.824-18.944-22.016-15.872-48.128-4.608-71.68 17.408-36.352 60.928-114.176 148.992-187.392 147.456-122.368 308.736-157.184 494.08-161.28 29.696-0.512 29.184-50.176-10.24-51.2 0 0-258.56-23.552-472.064 137.728-52.736-186.368 133.12-338.432 309.76-355.84 94.72-9.216 170.496 13.312 257.536-23.04 39.936-16.384 96.256-43.52 126.464-108.032z" fill="#388E3C" p-id="19073"></path></svg>