<?xml version="1.0" standalone="no"?><!DOCTYPE svg PUBLIC "-//W3C//DTD SVG 1.1//EN" "http://www.w3.org/Graphics/SVG/1.1/DTD/svg11.dtd"><svg t="1730872126241" class="icon" viewBox="0 0 1024 1024" version="1.1" xmlns="http://www.w3.org/2000/svg" p-id="27347" xmlns:xlink="http://www.w3.org/1999/xlink" width="200" height="200"><path d="M512 512m-508.031008 0a508.031008 508.031008 0 1 0 1016.062016 0 508.031008 508.031008 0 1 0-1016.062016 0Z" fill="#FF0000" opacity=".55" p-id="27348"></path><path d="M512 138.914729c-205.990698 0-373.085271 167.094574-373.085271 373.085271s167.094574 373.085271 373.085271 373.085271 373.085271-167.094574 373.085271-373.085271-167.094574-373.085271-373.085271-373.085271z m242.505426 132.96124l-1.587597-1.587597c0.793798 0.396899 1.190698 0.793798 1.587597 1.587597z m21.829458 24.210853c-0.396899-0.396899-0.793798-1.190698-1.190698-1.587597 0.396899 0.396899 0.793798 0.793798 1.190698 1.587597z m-10.716279-12.700775c-0.793798-0.793798-1.587597-1.587597-2.381396-2.778295 0.793798 1.190698 1.587597 1.984496 2.381396 2.778295z m-23.020155-23.020156c-0.793798-0.793798-1.587597-1.587597-2.778295-2.381395 1.190698 0.793798 1.984496 1.587597 2.778295 2.381395z m-11.906977-10.716279l-1.587597-1.587596c0.396899 0.396899 0.793798 1.190698 1.587597 1.587596z m-13.097675-10.319379c-0.793798-0.793798-1.984496-1.587597-2.778294-1.984497 0.793798 0.396899 1.587597 1.190698 2.778294 1.984497z m-13.097674-9.525582c-0.793798-0.396899-1.190698-0.793798-1.984496-1.587597 0.396899 0.793798 1.190698 1.190698 1.984496 1.587597z m-14.288372-9.128682c-0.793798-0.793798-1.984496-1.190698-2.778295-1.587597 0.793798 0.396899 1.984496 1.190698 2.778295 1.587597zM264.334884 277.035659c-9.128682 9.922481-17.860465 19.844961-26.195349 30.958139-7.937984 10.31938-14.685271 21.432558-21.432558 32.545737 6.747287-11.113178 13.494574-22.226357 21.432558-32.545737 8.334884-11.113178 17.066667-21.432558 26.195349-30.958139z m83.348837 534.226357c0.793798 0.396899 1.587597 0.793798 1.984496 1.190697-0.396899-0.396899-1.190698-0.793798-1.984496-1.190697z m15.08217 7.937984c1.190698 0.396899 1.984496 0.793798 3.175194 1.587597-1.190698-0.793798-2.381395-1.190698-3.175194-1.587597z m15.082171 6.747287c0.793798 0.396899 1.190698 0.396899 1.984496 0.793798-0.793798 0-1.587597-0.396899-1.984496-0.793798z m15.47907 6.350387c1.190698 0.396899 2.381395 0.793798 3.175194 1.190698-1.190698-0.396899-2.381395-0.793798-3.175194-1.190698z m15.875969 5.55659c0.396899 0 1.190698 0.396899 1.587597 0.396899-0.396899 0-1.190698-0.396899-1.587597-0.396899z m15.875969 4.365891c1.190698 0.396899 2.381395 0.793798 3.572093 0.793798-1.190698 0-2.381395-0.396899-3.572093-0.793798z m17.066666 3.968992c0.396899 0 0.793798 0 1.190698 0.3969-0.396899 0-0.793798 0-1.190698-0.3969z m16.272869 3.175194c1.190698 0 2.381395 0.396899 3.572093 0.396899-1.190698 0-2.381395-0.396899-3.572093-0.396899z m18.257364 2.381395h0.793798-0.793798z m15.875969 1.190698h3.968992-3.968992z m34.927132 0h3.968992-3.968992z m19.448062-1.190698h0.793798-0.793798z m15.08217-1.984496c1.190698 0 2.381395-0.396899 3.572093-0.396899-1.190698 0-2.381395 0.396899-3.572093 0.396899z m18.654264-3.175193c0.396899 0 0.793798 0 1.190698-0.3969-0.396899 0.396899-0.793798 0.396899-1.190698 0.3969z m14.685271-3.572094c1.190698-0.396899 2.381395-0.396899 3.572093-0.793798-1.190698 0.396899-2.381395 0.793798-3.572093 0.793798z m17.860465-4.76279c0.396899 0 1.190698-0.396899 1.587597-0.396899-0.396899 0-1.190698 0.396899-1.587597 0.396899z m14.288372-4.762791c1.190698-0.396899 2.381395-0.793798 3.175194-1.190698-0.793798 0.396899-1.984496 0.793798-3.175194 1.190698z m17.066667-6.747287c0.793798-0.396899 1.190698-0.396899 1.984496-0.793798-0.793798 0.396899-1.587597 0.793798-1.984496 0.793798z m13.494574-5.953488c1.190698-0.396899 1.984496-0.793798 3.175194-1.587597-0.793798 0.396899-1.984496 0.793798-3.175194 1.587597z m16.272868-8.334884c0.793798-0.396899 1.587597-0.793798 1.984496-1.190697-0.793798 0.396899-1.587597 0.793798-1.984496 1.190697z m8.334884-4.762791L512 512l-170.666667 295.689922c-102.003101-59.137984-170.666667-169.475969-170.666666-295.689922h341.333333L359.193798 206.784496c46.04031-23.020155 97.637209-36.117829 152.806202-36.117829 62.313178 0 120.657364 16.669767 170.666667 45.643411l-169.07907 294.102325 339.745736 1.587597c0 126.213953-68.663566 236.551938-170.666666 295.689922z m101.606201-501.68062c0.793798 0.793798 1.587597 1.984496 1.984496 2.778295-0.396899-0.793798-1.190698-1.587597-1.984496-2.778295z m10.716279 14.685272c0.396899 0.396899 0.793798 1.190698 0.793799 1.587597-0.396899-0.396899-0.396899-1.190698-0.793799-1.587597z m7.937985 12.700775c0.793798 1.190698 1.190698 1.984496 1.984496 3.175194-0.793798-1.190698-1.190698-2.381395-1.984496-3.175194z m9.128682 15.47907c0.396899 0.396899 0.396899 0.793798 0.793798 1.190697-0.396899-0.396899-0.396899-0.793798-0.793798-1.190697z m6.747287 13.097674c0.396899 1.190698 1.190698 2.381395 1.587597 3.175194-0.396899-0.793798-0.793798-1.984496-1.587597-3.175194z m7.541085 16.669767c0 0.396899 0.396899 0.793798 0.396899 1.190698 0 0 0-0.396899-0.396899-1.190698z m5.556589 13.891473l1.190698 3.572093-1.190698-3.572093z m5.953489 17.860465c0 0.396899 0 0.793798 0.396899 1.190698 0-0.793798 0-0.793798-0.396899-1.190698z m4.365891 14.288373c0.396899 1.190698 0.793798 2.381395 0.793798 3.572093-0.396899-1.190698-0.396899-2.381395-0.793798-3.572093z m4.365892 18.257364v0z m2.778294 15.08217c0.396899 1.190698 0.396899 2.381395 0.396899 3.968993 0-1.587597-0.396899-2.778295-0.396899-3.968993z m2.381395 19.051163v0z m1.190698 15.47907c0 1.190698 0 2.778295 0.396899 3.968992-0.396899-1.587597-0.396899-2.778295-0.396899-3.968992z" fill="#FFFFFF" p-id="27349"></path></svg>