<?xml version="1.0" standalone="no"?><!DOCTYPE svg PUBLIC "-//W3C//DTD SVG 1.1//EN" "http://www.w3.org/Graphics/SVG/1.1/DTD/svg11.dtd"><svg t="1736344842340" class="icon" viewBox="0 0 1369 1024" version="1.1" xmlns="http://www.w3.org/2000/svg" p-id="56449" xmlns:xlink="http://www.w3.org/1999/xlink" width="342.25" height="256"><path d="M439.832617 442.201088h488.995019a44.167292 44.167292 0 0 0 43.115689-45.218895 42.589889 42.589889 0 0 0-1.840303-11.567624L866.520206 31.550432A43.904391 43.904391 0 0 0 823.930317 0.002366h-281.303586a43.641491 43.641491 0 0 0-41.801187 31.548066l-103.319916 353.864137a43.904391 43.904391 0 0 0 29.707762 54.946215 41.801187 41.801187 0 0 0 12.619227 1.840304z m115.676241 75.978258a43.641491 43.641491 0 0 0-41.275386-31.548066H232.929885a43.641491 43.641491 0 0 0-41.275386 31.548066L87.808783 872.043483a44.167292 44.167292 0 0 0 29.707762 54.946215 42.326988 42.326988 0 0 0 12.882127 1.840304h488.732118a44.167292 44.167292 0 0 0 43.11569-45.218895 34.439972 34.439972 0 0 0-1.840304-11.567624z m723.239407 353.864137l-105.160219-353.864137a43.904391 43.904391 0 0 0-41.275386-31.548066H852.323576a44.167292 44.167292 0 0 0-41.538286 31.548066L707.202474 872.043483a43.904391 43.904391 0 0 0 30.233563 54.946215 41.801187 41.801187 0 0 0 12.619226 1.840304h488.995019a44.167292 44.167292 0 0 0 42.064088-46.270497 49.162402 49.162402 0 0 0-2.366105-10.516022zM0 975.8892h1369.448954v48.1108H0z" p-id="56450" fill="#a15c2a"></path></svg>