<?xml version="1.0" standalone="no"?><!DOCTYPE svg PUBLIC "-//W3C//DTD SVG 1.1//EN" "http://www.w3.org/Graphics/SVG/1.1/DTD/svg11.dtd"><svg t="1736343593279" class="icon" viewBox="0 0 1265 1024" version="1.1" xmlns="http://www.w3.org/2000/svg" p-id="37087" xmlns:xlink="http://www.w3.org/1999/xlink" width="316.25" height="256"><path d="M842.549664 490.594134H422.413198a95.683253 95.683253 0 0 1-76.546603-33.054215 86.984776 86.984776 0 0 1-16.092183-72.197363l57.844876-280.090978C399.797156 46.971779 444.594315 0 488.086703 0h288.354531c43.492388 0 86.984776 46.971779 100.467416 105.251578l58.2798 280.090978a86.984776 86.984776 0 0 1-16.092184 72.197363 96.118177 96.118177 0 0 1-76.546602 33.054215z m-427.965096-86.984775h428.400019a21.746194 21.746194 0 0 0 10.00325 0l-60.889343-280.960825a65.238582 65.238582 0 0 0-20.006499-35.663758h-279.221129a65.238582 65.238582 0 0 0-20.006498 35.663758zM770.3523 86.984776z" fill="#D4AF37" p-id="37088"></path><path d="M517.226603 1023.810808H96.655213a95.683253 95.683253 0 0 1-76.546602-33.054215A84.375232 84.375232 0 0 1 1.841808 918.55923l58.2798-280.090978c12.177869-57.844876 56.975028-105.251578 100.467415-105.251578h288.354531c43.492388 0 86.984776 46.971779 100.467416 105.251578L610.735237 918.55923a84.375232 84.375232 0 0 1-16.092184 72.197363 95.683253 95.683253 0 0 1-77.41645 33.054215zM88.826584 935.956185h427.965095a21.31127 21.31127 0 0 0 10.003249 0l-60.454419-279.22113a65.238582 65.238582 0 0 0-20.006498-35.663758H167.547805a65.238582 65.238582 0 0 0-20.006498 35.663758zM1168.307648 1023.810808h-420.57139a96.118177 96.118177 0 0 1-76.546602-33.054215 84.375232 84.375232 0 0 1-16.962031-72.197363l58.279799-280.090978c12.177869-57.844876 56.975028-105.251578 100.467416-105.251578h289.224379c43.492388 0 86.984776 46.971779 100.467415 105.251578L1263.121053 918.55923a86.984776 86.984776 0 0 1-16.092183 72.197363 96.118177 96.118177 0 0 1-78.721222 33.054215z m-427.965096-86.984775h427.965096a21.31127 21.31127 0 0 0 10.003249 0l-60.454419-279.22113a64.803658 64.803658 0 0 0-20.006498-35.663758h-279.22113a65.238582 65.238582 0 0 0-20.006498 35.663758z" fill="#D4AF37" p-id="37089"></path></svg>