<?xml version="1.0" standalone="no"?><!DOCTYPE svg PUBLIC "-//W3C//DTD SVG 1.1//EN" "http://www.w3.org/Graphics/SVG/1.1/DTD/svg11.dtd"><svg t="1736343310956" class="icon" viewBox="0 0 1024 1024" version="1.1" xmlns="http://www.w3.org/2000/svg" p-id="33690" xmlns:xlink="http://www.w3.org/1999/xlink" width="256" height="256"><path d="M112.3 704.3h83.3c7.9 0 14.3 6.6 14.3 14.7v142.8c0 8.1-6.4 14.7-14.3 14.7h-83.3c-7.9 0-14.3-6.6-14.3-14.7V718.9c0-8.1 6.4-14.6 14.3-14.6zM369 551.4h83.2c7.9 0 14.3 6.6 14.3 14.7v295.7c0 8.1-6.3 14.7-14.3 14.7H369c-7.9 0-14.3-6.6-14.3-14.7V566c0-8.1 6.5-14.6 14.3-14.6z m204.8 95.5h83.3c7.9 0 14.3 6.6 14.3 14.7v200.1c0 8.1-6.4 14.7-14.3 14.7h-83.3c-7.9 0-14.2-6.6-14.2-14.7V661.6c0-8.1 6.4-14.7 14.2-14.7z m256.7-210.2h83.3c7.9 0 14.3 6.6 14.3 14.7v410.3c0 8.1-6.4 14.7-14.3 14.7h-83.3c-7.9 0-14.3-6.6-14.3-14.7V451.4c0.1-8.1 6.5-14.7 14.3-14.7z m-64.4-261.6l36.7 37.7c5.6 5.8 5.5 15.4-0.4 21l-196.5 137c-5.2 4.8-13.1 5.2-18.6 0.6L401.6 215.5c-5.6-4.6-13.5-4.4-18.6 0.6L102.5 432.5c-2.9 2.7-4.5 6.7-4.5 10.7v75c0 12.7 14.8 19.4 24 10.7l261-198c5.2-4.9 13.1-5.2 18.6-0.6l185.7 155.9c5.6 4.6 13.5 4.4 18.6-0.6l255.5-192.9c5.6-5.3 14.4-5.2 19.7 0.4l22.6 23.2c9 9.2 24.3 2.6 24.3-10.3V164.7c0-8.1-6.4-14.7-14.3-14.7H776.2c-12.7 0.1-19 15.8-10.1 25.1z" fill="#FF6F61" p-id="33691"></path></svg>